<?xml version="1.0" standalone="no"?>
<!DOCTYPE svg PUBLIC "-//W3C//DTD SVG 20010904//EN"
 "http://www.w3.org/TR/2001/REC-SVG-20010904/DTD/svg10.dtd">
<svg version="1.0" xmlns="http://www.w3.org/2000/svg"
 width="225.000000pt" height="225.000000pt" viewBox="0 0 225.000000 225.000000"
 preserveAspectRatio="xMidYMid meet">

<g transform="translate(0.000000,225.000000) scale(0.100000,-0.100000)"
fill="#000000" stroke="none">
<path d="M1084 1933 c-19 -20 -34 -43 -34 -51 0 -25 21 -52 40 -52 25 0 25
-15 0 -40 -35 -35 -90 -18 -69 22 8 14 6 28 -5 53 -28 57 -61 55 -87 -6 -10
-26 -10 -35 0 -52 11 -18 11 -22 -5 -34 -38 -28 -82 -3 -76 43 3 19 -1 24 -18
24 -19 0 -22 -4 -17 -27 7 -36 -1 -53 -31 -64 -39 -15 -73 12 -65 51 5 28 4
30 -26 30 -17 0 -34 0 -38 1 -4 0 -9 -4 -11 -10 -2 -6 6 -11 17 -11 17 0 21
-6 19 -27 -1 -16 6 -42 15 -60 11 -20 13 -34 7 -38 -6 -4 -2 -16 10 -32 11
-14 20 -34 20 -44 0 -21 41 -34 152 -49 97 -12 370 -12 483 0 127 15 149 23
164 65 7 19 17 35 22 35 5 0 9 7 9 15 0 8 -4 15 -10 15 -5 0 -1 14 10 32 12
20 17 41 13 60 -5 23 -2 28 15 28 12 0 24 5 27 11 5 7 -8 9 -37 7 -42 -3 -43
-4 -40 -36 2 -26 -2 -34 -22 -42 -13 -5 -33 -6 -44 -3 -25 6 -45 46 -30 61 14
14 0 34 -20 30 -11 -2 -17 -13 -17 -33 0 -40 -44 -58 -75 -30 -19 17 -19 19
-4 37 16 17 16 20 -2 53 -29 54 -59 57 -81 8 -16 -34 -16 -60 -1 -69 7 -5 5
-11 -7 -21 -26 -18 -49 -16 -68 5 -23 25 -21 35 6 47 35 16 34 63 -2 103 -16
17 -35 32 -42 32 -6 0 -27 -17 -45 -37z m71 -43 c9 -27 -1 -40 -31 -40 -18 0
-24 5 -24 23 0 13 3 27 7 30 13 14 42 6 48 -13z m-161 -48 c9 -14 -12 -35 -28
-29 -23 9 -20 37 3 37 11 0 22 -4 25 -8z m306 -13 c0 -14 -5 -19 -17 -17 -26
5 -29 38 -4 38 15 0 21 -6 21 -21z m-207 -86 c-7 -2 -21 -2 -30 0 -10 3 -4 5
12 5 17 0 24 -2 18 -5z m90 0 c-13 -2 -35 -2 -50 0 -16 2 -5 4 22 4 28 0 40
-2 28 -4z m-205 -10 c-15 -2 -42 -2 -60 0 -18 2 -6 4 27 4 33 0 48 -2 33 -4z
m370 0 c-15 -2 -42 -2 -60 0 -18 2 -6 4 27 4 33 0 48 -2 33 -4z m-495 -10 c-7
-2 -21 -2 -30 0 -10 3 -4 5 12 5 17 0 24 -2 18 -5z m585 0 c-10 -2 -26 -2 -35
0 -10 3 -2 5 17 5 19 0 27 -2 18 -5z m-655 -10 c-7 -2 -19 -2 -25 0 -7 3 -2 5
12 5 14 0 19 -2 13 -5z m710 0 c-7 -2 -19 -2 -25 0 -7 3 -2 5 12 5 14 0 19 -2
13 -5z m-323 -29 c0 -10 -13 -14 -45 -14 -32 0 -45 4 -45 14 0 8 8 16 18 18
31 6 72 -4 72 -18z m-170 2 c0 -17 -68 -32 -82 -18 -18 18 2 32 43 32 27 0 39
-4 39 -14z m338 -3 c-2 -10 -9 -18 -16 -17 -6 1 -25 2 -42 3 -19 0 -30 6 -30
16 0 11 12 15 46 15 38 0 45 -3 42 -17z m145 -7 c15 -4 27 -13 27 -22 0 -13
-8 -15 -42 -9 -24 4 -45 9 -47 11 -8 8 9 33 21 30 7 -3 25 -7 41 -10z m-653
-11 c0 -15 -61 -31 -79 -20 -27 16 -4 31 52 34 17 1 27 -4 27 -14z m524 -35
c167 -16 178 -32 35 -51 -84 -12 -521 -6 -586 7 -36 7 -42 18 -15 29 54 22
393 31 566 15z"/>
<path d="M613 1318 c4 -186 8 -225 30 -309 58 -220 152 -397 297 -554 62 -68
170 -165 184 -165 5 0 39 25 75 56 224 191 375 458 426 751 9 54 15 150 15
259 l0 174 -516 0 -516 0 5 -212z m497 128 l0 -55 -54 25 c-118 54 -244 54
-361 0 l-55 -25 0 55 0 54 235 0 235 0 0 -54z m500 0 l0 -55 -55 25 c-116 53
-243 53 -362 -1 l-53 -24 0 55 0 54 235 0 235 0 0 -54z m-565 -61 l60 -30 3
-95 3 -96 -35 -17 c-21 -9 -37 -12 -40 -6 -2 5 -3 4 -2 -3 2 -7 -5 -24 -15
-37 -11 -13 -19 -37 -19 -52 l0 -29 -164 0 -164 0 -12 53 c-7 28 -14 102 -17
163 l-6 112 28 18 c61 40 126 55 225 51 83 -2 104 -7 155 -32z m500 0 l60 -30
-1 -115 c0 -63 -6 -139 -13 -167 l-13 -53 -164 0 -164 0 0 29 c0 36 -38 84
-80 101 l-30 12 0 93 0 93 36 22 c62 39 113 50 214 47 83 -2 104 -6 155 -32z
m-410 -245 c4 -6 15 -8 25 -5 26 8 82 -59 78 -93 -2 -19 -9 -27 -23 -27 -16 0
-21 8 -25 47 -3 27 -12 54 -19 60 -12 11 -13 9 -6 -7 5 -11 10 -36 13 -56 4
-39 -8 -55 -34 -45 -12 5 -13 10 -4 27 10 17 8 25 -11 45 -12 13 -19 24 -15
24 4 0 2 9 -4 20 -8 16 -8 20 4 20 8 0 18 -5 21 -10z m-35 -28 c0 -11 -11 -24
-25 -30 -14 -6 -34 -26 -45 -44 l-20 -33 0 32 c0 19 10 43 26 62 29 35 64 42
64 13z m30 -52 c0 -13 -7 -20 -19 -20 -21 0 -45 -25 -37 -38 3 -5 -4 -16 -16
-26 -29 -25 -45 -7 -28 34 24 57 100 96 100 50z m0 -50 c14 -14 26 -18 38 -12
9 5 30 6 46 3 28 -6 29 -7 12 -23 -24 -25 -87 -23 -120 3 -21 17 -24 24 -15
35 15 18 15 18 39 -6z m-380 -115 c0 -52 -2 -95 -4 -95 -4 0 -49 124 -61 168
-6 20 -3 22 29 22 l36 0 0 -95z m110 -95 c0 -104 -2 -190 -4 -190 -2 0 -14 15
-25 34 -19 30 -21 49 -21 190 l0 156 25 0 25 0 0 -190z m120 -77 l-1 -268 -29
33 -30 32 0 235 0 235 30 0 30 0 0 -267z m350 29 l0 -238 -30 -29 -30 -29 0
267 0 267 30 0 30 0 0 -238z m110 81 c-1 -150 -2 -160 -25 -198 l-25 -40 0
198 0 197 25 0 25 0 0 -157z m130 148 c0 -14 -61 -181 -66 -181 -2 0 -4 43 -4
95 l0 95 35 0 c19 0 35 -4 35 -9z m-403 -34 c31 -1 33 -2 17 -14 -19 -14 -81
-17 -108 -7 -16 6 -22 35 -10 47 4 3 20 -1 37 -9 16 -9 45 -17 64 -17z m-84
-33 c16 -6 17 -29 17 -285 0 -154 -3 -279 -7 -279 -4 0 -17 10 -30 22 -23 21
-23 22 -23 291 0 211 3 267 13 263 6 -3 20 -9 30 -12z m105 -541 c-12 -13 -25
-23 -29 -23 -4 0 -8 124 -9 275 l0 274 27 15 28 14 3 -266 c2 -261 2 -266 -20
-289z"/>
<path d="M845 1347 c-4 -15 -11 -27 -15 -27 -4 0 -7 -10 -6 -22 1 -20 7 -23
44 -26 32 -2 44 1 48 13 9 21 -27 89 -38 72 -6 -9 -10 -9 -17 2 -8 12 -11 9
-16 -12z m40 -27 c3 -5 -3 -10 -15 -10 -12 0 -18 5 -15 10 3 6 10 10 15 10 5
0 12 -4 15 -10z"/>
<path d="M761 1283 c-1 -6 -10 -9 -21 -6 -11 3 -20 1 -20 -4 0 -5 16 -10 35
-10 19 0 35 4 35 9 0 5 -4 7 -9 4 -5 -4 -12 0 -14 6 -4 9 -6 9 -6 1z"/>
<path d="M970 1282 c0 -7 -4 -11 -8 -8 -4 2 -9 -5 -9 -17 -2 -18 0 -19 7 -6 6
11 18 15 34 12 21 -4 23 -8 16 -33 -5 -18 -4 -32 3 -39 17 -17 27 -13 26 12 0
21 -1 21 -10 2 -7 -15 -8 -8 -5 26 5 43 4 46 -17 45 -12 -1 -25 3 -29 9 -5 6
-8 5 -8 -3z"/>
<path d="M724 1228 c2 -16 -1 -28 -5 -28 -5 0 -8 -12 -8 -27 2 -25 2 -26 6 -5
3 15 10 22 18 18 9 -3 12 0 9 8 -3 8 -1 17 5 21 14 8 14 25 1 25 -5 0 -10 -8
-11 -17 -1 -13 -4 -10 -10 7 -9 25 -9 25 -5 -2z"/>
<path d="M900 1239 c0 -5 -11 -9 -24 -9 -13 0 -27 -6 -29 -12 -3 -8 -6 -6 -6
5 -1 18 -41 25 -41 6 0 -5 4 -8 9 -4 5 3 12 1 15 -4 7 -10 -13 -9 -30 2 -13 7
-41 -20 -31 -30 4 -3 9 2 13 11 6 15 8 14 24 -4 17 -20 17 -65 -1 -76 -11 -6
-12 -81 -1 -88 4 -2 6 13 4 34 -2 21 1 41 7 44 6 4 11 18 11 31 0 18 4 23 15
19 8 -4 15 -1 15 5 0 6 -4 11 -10 11 -5 0 -10 5 -10 10 0 6 20 10 44 10 43 0
44 -1 49 -37 4 -21 10 -58 15 -83 l9 -45 2 42 c0 23 -3 45 -9 48 -5 3 -10 22
-10 40 0 33 1 34 31 28 30 -6 30 -5 18 16 -12 19 -14 19 -20 3 -5 -15 -7 -14
-13 4 -7 21 -46 41 -46 23z"/>
<path d="M980 1224 c0 -8 5 -12 10 -9 6 3 10 10 10 16 0 5 -4 9 -10 9 -5 0
-10 -7 -10 -16z"/>
<path d="M890 1171 c0 -6 5 -13 10 -16 6 -3 10 1 10 9 0 9 -4 16 -10 16 -5 0
-10 -4 -10 -9z"/>
<path d="M694 1116 c-3 -8 -4 -25 -2 -38 3 -17 5 -13 9 15 5 38 2 47 -7 23z"/>
<path d="M848 1070 c-3 -17 -1 -33 4 -36 4 -3 8 9 8 25 0 21 5 31 15 31 17 0
20 -31 5 -46 -7 -7 -6 -11 5 -11 26 0 16 61 -11 65 -17 2 -22 -3 -26 -28z"/>
<path d="M1333 1320 c-47 -87 -51 -106 -28 -136 14 -18 15 -17 4 8 -7 16 -8
37 -3 55 8 28 8 28 15 -12 l7 -40 -3 46 c-1 38 1 46 14 44 12 -1 17 -18 21
-76 l5 -74 8 48 c20 127 20 137 3 137 -9 0 -16 -8 -16 -17 0 -12 -3 -14 -11
-6 -8 8 -5 21 9 49 l20 38 21 -42 c12 -23 17 -42 11 -42 -6 0 -11 -31 -11 -72
-1 -55 -3 -66 -9 -43 -6 23 -8 25 -9 8 0 -12 2 -29 5 -38 9 -23 24 0 24 37 0
15 5 30 10 33 6 3 10 16 10 28 l0 21 15 -21 c15 -21 13 -28 -26 -105 l-41 -82
-23 44 c-13 25 -19 47 -14 48 5 2 6 8 3 14 -4 6 -9 5 -14 -3 -11 -16 37 -112
51 -104 5 4 27 41 49 84 l39 78 -45 87 c-25 47 -46 86 -47 86 -1 0 -21 -36
-44 -80z m44 -62 c-2 -13 -4 -5 -4 17 -1 22 1 32 4 23 2 -10 2 -28 0 -40z m40
-15 c-3 -10 -5 -4 -5 12 0 17 2 24 5 18 2 -7 2 -21 0 -30z"/>
</g>
</svg>
