<svg xmlns="http://www.w3.org/2000/svg" xmlns:v="https://svgstorm.com"
viewBox = "0 0 225 225"
width="225"
height="225">
<g fill="None" fill-opacity="0.0" stroke="#000000" stroke-opacity="0.00" stroke-width="0.3"><path d="
M 0.00 225.00 
L 225.00 225.00
L 225.00 0.00
L 0.00 0.00
L 0.00 225.00
M 115.00 45.00 
C 118.13 46.62 121.47 47.79 125.00 46.00
C 120.00 44.29 123.01 33.77 128.03 34.03 C 133.04 34.29 135.46 43.71 132.00 47.00
C 134.81 48.91 138.66 48.21 141.00 46.00
C 139.58 37.31 145.02 40.51 144.79 47.23 C 144.56 53.95 159.25 48.03 153.00 42.00
C 155.72 41.37 162.69 38.83 162.00 44.00
C 160.49 45.50 157.67 42.80 157.00 46.00
C 161.28 50.06 151.17 55.44 158.00 58.00
C 154.32 58.27 152.60 62.72 153.00 66.00
C 139.43 71.15 121.64 70.10 107.00 70.00 C 92.36 69.90 75.58 72.15 69.00 59.00
C 72.95 54.47 64.76 50.60 68.00 45.00
C 66.09 43.41 61.97 44.95 63.00 41.00
C 66.60 40.74 70.06 40.92 73.00 43.00
C 67.27 52.62 86.57 50.79 80.00 43.00
C 81.13 39.79 83.98 39.75 86.00 42.00
C 82.02 46.96 89.37 50.03 93.00 47.00
C 90.73 43.69 91.15 35.41 96.08 34.08 C 101.02 32.75 105.47 43.18 101.00 46.00
C 103.78 47.83 108.73 47.60 110.00 44.00
C 101.27 42.32 105.08 27.19 113.01 28.01 C 120.94 28.83 122.91 43.10 115.00 45.00
M 113.00 197.00 
C 72.10 168.81 55.88 119.53 60.00 71.00
C 70.84 70.62 79.99 71.51 91.00 71.00 C 102.01 70.49 111.51 71.95 123.00 71.00 C 134.49 70.05 142.48 73.03 155.00 71.00 C 167.52 68.97 165.48 83.18 165.00 93.00 C 164.52 102.82 164.33 113.29 162.01 122.01 C 159.68 130.73 157.78 138.47 154.07 146.07 C 150.37 153.68 148.41 157.10 144.08 164.08 C 139.75 171.06 134.93 175.62 129.75 181.75 C 124.57 187.88 118.88 191.66 113.00 197.00 Z"/>
</g>
<g fill="None" fill-opacity="0.0" stroke="#FA3232" stroke-opacity="0.99" stroke-width="0.3"><path d="
M 115.00 45.00 
C 122.91 43.10 120.94 28.83 113.01 28.01 C 105.08 27.19 101.27 42.32 110.00 44.00
C 108.73 47.60 103.78 47.83 101.00 46.00
C 105.47 43.18 101.02 32.75 96.08 34.08 C 91.15 35.41 90.73 43.69 93.00 47.00
C 89.37 50.03 82.02 46.96 86.00 42.00
C 83.98 39.75 81.13 39.79 80.00 43.00
C 86.57 50.79 67.27 52.62 73.00 43.00
C 70.06 40.92 66.60 40.74 63.00 41.00
C 61.97 44.95 66.09 43.41 68.00 45.00
C 64.76 50.60 72.95 54.47 69.00 59.00
C 75.58 72.15 92.36 69.90 107.00 70.00 C 121.64 70.10 139.43 71.15 153.00 66.00
C 152.60 62.72 154.32 58.27 158.00 58.00
C 151.17 55.44 161.28 50.06 157.00 46.00
C 157.67 42.80 160.49 45.50 162.00 44.00
C 162.69 38.83 155.72 41.37 153.00 42.00
C 159.25 48.03 144.56 53.95 144.79 47.23 C 145.02 40.51 139.58 37.31 141.00 46.00
C 138.66 48.21 134.81 48.91 132.00 47.00
C 135.46 43.71 133.04 34.29 128.03 34.03 C 123.01 33.77 120.00 44.29 125.00 46.00
C 121.47 47.79 118.13 46.62 115.00 45.00
M 115.00 40.00 
C 110.75 40.99 110.17 38.15 110.00 35.00
C 113.89 33.90 115.97 36.15 115.00 40.00
M 99.00 40.00 
C 99.47 47.89 91.30 39.91 99.00 40.00
M 130.00 40.00 
C 130.48 47.30 122.04 40.19 130.00 40.00
M 100.00 55.00 
C 99.98 59.37 93.56 58.40 91.00 57.00
C 93.20 54.96 96.87 54.85 100.00 55.00
M 117.00 57.00 
C 113.82 57.91 110.98 58.14 108.00 57.00
C 109.17 54.12 116.71 53.65 117.00 57.00
M 134.00 56.00 
C 133.62 59.50 127.34 58.13 125.00 57.00
C 126.60 53.36 131.24 55.43 134.00 56.00
M 83.00 60.00 
C 80.99 58.80 78.17 60.17 76.00 61.00
C 72.48 56.98 84.36 54.82 83.00 60.00
M 151.00 58.00 
C 150.63 61.57 143.54 60.36 142.00 58.00
C 144.84 55.50 147.82 58.70 151.00 58.00
M 148.00 64.00 
C 127.12 69.60 98.81 70.25 78.00 64.00
C 99.30 61.01 125.46 60.78 148.00 64.00 Z"/>
</g>
<g fill="None" fill-opacity="0.0" stroke="#000000" stroke-opacity="0.00" stroke-width="0.3"><path d="
M 115.00 40.00 
C 115.97 36.15 113.89 33.90 110.00 35.00
C 110.17 38.15 110.75 40.99 115.00 40.00 Z"/>
</g>
<g fill="None" fill-opacity="0.0" stroke="#000000" stroke-opacity="0.00" stroke-width="0.3"><path d="
M 99.00 40.00 
C 91.30 39.91 99.47 47.89 99.00 40.00 Z"/>
</g>
<g fill="None" fill-opacity="0.0" stroke="#000000" stroke-opacity="0.00" stroke-width="0.3"><path d="
M 130.00 40.00 
C 122.04 40.19 130.48 47.30 130.00 40.00 Z"/>
</g>
<g fill="None" fill-opacity="0.0" stroke="#000000" stroke-opacity="0.00" stroke-width="0.3"><path d="
M 100.00 55.00 
C 96.87 54.85 93.20 54.96 91.00 57.00
C 93.56 58.40 99.98 59.37 100.00 55.00 Z"/>
</g>
<g fill="None" fill-opacity="0.0" stroke="#000000" stroke-opacity="0.00" stroke-width="0.3"><path d="
M 117.00 57.00 
C 116.71 53.65 109.17 54.12 108.00 57.00
C 110.98 58.14 113.82 57.91 117.00 57.00 Z"/>
</g>
<g fill="None" fill-opacity="0.0" stroke="#000000" stroke-opacity="0.00" stroke-width="0.3"><path d="
M 134.00 56.00 
C 131.24 55.43 126.60 53.36 125.00 57.00
C 127.34 58.13 133.62 59.50 134.00 56.00 Z"/>
</g>
<g fill="None" fill-opacity="0.0" stroke="#000000" stroke-opacity="0.02" stroke-width="0.3"><path d="
M 83.00 60.00 
C 84.36 54.82 72.48 56.98 76.00 61.00
C 78.17 60.17 80.99 58.80 83.00 60.00 Z"/>
</g>
<g fill="None" fill-opacity="0.0" stroke="#000000" stroke-opacity="0.00" stroke-width="0.3"><path d="
M 151.00 58.00 
C 147.82 58.70 144.84 55.50 142.00 58.00
C 143.54 60.36 150.63 61.57 151.00 58.00 Z"/>
</g>
<g fill="None" fill-opacity="0.0" stroke="#000000" stroke-opacity="0.00" stroke-width="0.3"><path d="
M 148.00 64.00 
C 125.46 60.78 99.30 61.01 78.00 64.00
C 98.81 70.25 127.12 69.60 148.00 64.00 Z"/>
</g>
<g fill="None" fill-opacity="0.0" stroke="#FA3232" stroke-opacity="0.98" stroke-width="0.3"><path d="
M 113.00 197.00 
C 118.88 191.66 124.57 187.88 129.75 181.75 C 134.93 175.62 139.75 171.06 144.08 164.08 C 148.41 157.10 150.37 153.68 154.07 146.07 C 157.78 138.47 159.68 130.73 162.01 122.01 C 164.33 113.29 164.52 102.82 165.00 93.00 C 165.48 83.18 167.52 68.97 155.00 71.00 C 142.48 73.03 134.49 70.05 123.00 71.00 C 111.51 71.95 102.01 70.49 91.00 71.00 C 79.99 71.51 70.84 70.62 60.00 71.00
C 55.88 119.53 72.10 168.81 113.00 197.00
M 111.00 85.00 
C 96.71 76.91 78.39 77.40 64.00 85.00
C 64.00 81.67 64.00 78.33 64.00 75.00
C 73.39 74.89 83.70 75.15 93.00 75.00 C 102.30 74.85 114.15 72.54 111.00 85.00
M 161.00 75.00 
C 161.00 78.33 161.00 81.67 161.00 85.00
C 146.65 77.11 128.40 77.17 114.00 85.00
C 114.78 82.24 115.53 78.99 114.00 76.00
C 129.17 73.68 145.42 75.65 161.00 75.00
M 111.00 91.00 
C 110.47 96.25 111.37 103.08 111.00 109.00
C 108.28 108.37 106.59 111.07 104.00 111.00
C 105.88 105.27 101.64 102.40 103.00 97.00
C 100.33 95.85 97.71 95.97 95.00 97.00
C 96.61 99.12 93.19 99.26 95.00 102.00
C 89.52 101.07 91.71 95.61 93.00 92.00
C 87.74 91.87 90.97 85.89 88.00 84.00
C 84.34 85.47 80.89 94.62 83.00 101.00
C 79.19 102.15 80.54 97.87 79.00 96.00
C 76.14 95.65 73.61 96.27 71.00 97.00
C 71.24 104.00 68.84 111.77 69.00 120.00
C 74.05 119.39 78.07 120.35 82.00 122.00
C 77.91 124.24 71.84 122.40 67.00 123.00
C 66.29 112.35 63.20 100.89 64.00 90.00
C 78.25 81.09 96.90 79.91 111.00 91.00
M 126.00 123.00 
C 126.16 116.51 122.40 111.69 116.78 109.22 C 111.15 106.76 117.98 95.69 114.00 91.00
C 125.55 83.35 132.90 81.54 147.67 84.33 C 162.45 87.11 161.86 98.01 160.00 113.00 C 158.14 127.99 138.72 122.23 126.00 123.00
M 78.00 99.00 
C 76.78 101.80 73.92 100.52 72.00 99.00
C 73.25 97.05 75.89 100.01 78.00 99.00
M 90.00 98.00 
C 91.42 101.66 85.32 101.95 84.00 100.00
C 83.92 97.50 87.34 97.95 90.00 98.00
M 101.00 103.00 
C 97.54 99.64 101.74 97.42 101.00 103.00
M 114.00 123.00 
C 117.07 118.48 111.86 115.45 112.00 111.00
C 117.76 110.78 121.09 125.77 114.00 123.00
M 110.00 115.00 
C 106.09 115.89 103.73 119.45 102.00 123.00
C 99.00 119.58 107.46 106.81 110.00 115.00
M 120.00 124.00 
C 120.13 120.11 120.35 116.19 118.00 113.00
C 122.07 113.37 127.52 124.35 120.00 124.00
M 86.00 120.00 
C 84.47 112.83 92.14 118.88 86.00 120.00
M 113.00 119.00 
C 111.10 120.22 108.45 121.51 106.00 122.00
C 108.34 124.24 105.91 128.20 103.00 128.00
C 101.84 122.94 108.88 114.14 113.00 119.00
M 100.00 122.00 
C 94.82 124.17 88.60 122.45 83.00 123.00
C 86.42 120.79 91.82 122.58 96.00 122.00
C 94.67 118.00 99.38 119.69 100.00 122.00
M 123.00 127.00 
C 118.68 131.31 106.99 128.09 110.00 122.00
C 112.54 127.21 118.80 123.93 123.00 127.00
M 73.00 141.00 
C 71.58 135.94 69.93 130.93 68.00 126.00
C 77.10 123.20 74.17 136.57 73.00 141.00
M 86.00 126.00 
C 86.00 138.67 86.00 151.33 86.00 164.00
C 81.10 159.70 79.89 151.37 81.00 145.00 C 82.11 138.63 77.10 126.04 86.00 126.00
M 98.00 126.00 
C 97.25 142.67 99.39 162.46 97.00 179.00
C 91.45 172.27 92.24 160.50 93.00 152.00 C 93.76 143.50 88.87 127.96 98.00 126.00
M 127.00 179.00 
C 126.58 171.90 127.97 164.93 127.00 157.00 C 126.03 149.07 128.82 142.26 127.60 134.26 C 126.38 126.25 134.28 122.40 132.00 136.00 C 129.72 149.60 137.29 168.66 127.00 179.00
M 144.00 126.00 
C 142.34 138.54 148.24 154.26 139.00 164.00
C 139.58 157.64 138.22 149.14 139.00 143.00 C 139.78 136.86 135.56 125.82 144.00 126.00
M 156.00 126.00 
C 155.49 131.20 153.86 136.87 151.00 141.00
C 151.46 136.45 147.90 125.05 156.00 126.00
M 118.00 132.00 
C 115.88 134.04 104.93 133.35 106.36 129.30 C 107.79 125.26 116.08 132.32 118.00 132.00
M 109.00 189.00 
C 100.41 182.95 104.97 173.24 104.00 164.00 C 103.03 154.75 104.72 141.60 104.00 132.00
C 112.95 136.35 108.05 148.56 109.00 158.00 C 109.95 167.44 108.29 179.34 109.00 189.00
M 121.00 132.00 
C 121.00 150.00 121.00 168.00 121.00 186.00
C 118.45 186.21 118.16 187.36 116.00 189.00
C 116.68 179.35 115.09 167.42 116.00 158.00 C 116.91 148.58 112.15 135.76 121.00 132.00 Z"/>
</g>
<g fill="None" fill-opacity="0.0" stroke="#000000" stroke-opacity="0.00" stroke-width="0.3"><path d="
M 111.00 85.00 
C 114.15 72.54 102.30 74.85 93.00 75.00 C 83.70 75.15 73.39 74.89 64.00 75.00
C 64.00 78.33 64.00 81.67 64.00 85.00
C 78.39 77.40 96.71 76.91 111.00 85.00 Z"/>
</g>
<g fill="None" fill-opacity="0.0" stroke="#000000" stroke-opacity="0.00" stroke-width="0.3"><path d="
M 161.00 75.00 
C 145.42 75.65 129.17 73.68 114.00 76.00
C 115.53 78.99 114.78 82.24 114.00 85.00
C 128.40 77.17 146.65 77.11 161.00 85.00
C 161.00 81.67 161.00 78.33 161.00 75.00 Z"/>
</g>
<g fill="None" fill-opacity="0.0" stroke="#000000" stroke-opacity="0.00" stroke-width="0.3"><path d="
M 111.00 91.00 
C 96.90 79.91 78.25 81.09 64.00 90.00
C 63.20 100.89 66.29 112.35 67.00 123.00
C 71.84 122.40 77.91 124.24 82.00 122.00
C 78.07 120.35 74.05 119.39 69.00 120.00
C 68.84 111.77 71.24 104.00 71.00 97.00
C 73.61 96.27 76.14 95.65 79.00 96.00
C 80.54 97.87 79.19 102.15 83.00 101.00
C 80.89 94.62 84.34 85.47 88.00 84.00
C 90.97 85.89 87.74 91.87 93.00 92.00
C 91.71 95.61 89.52 101.07 95.00 102.00
C 93.19 99.26 96.61 99.12 95.00 97.00
C 97.71 95.97 100.33 95.85 103.00 97.00
C 101.64 102.40 105.88 105.27 104.00 111.00
C 106.59 111.07 108.28 108.37 111.00 109.00
C 111.37 103.08 110.47 96.25 111.00 91.00 Z"/>
</g>
<g fill="None" fill-opacity="0.0" stroke="#000000" stroke-opacity="0.00" stroke-width="0.3"><path d="
M 126.00 123.00 
C 138.72 122.23 158.14 127.99 160.00 113.00 C 161.86 98.01 162.45 87.11 147.67 84.33 C 132.90 81.54 125.55 83.35 114.00 91.00
C 117.98 95.69 111.15 106.76 116.78 109.22 C 122.40 111.69 126.16 116.51 126.00 123.00
M 138.00 85.00 
C 139.69 90.31 146.96 96.34 146.92 102.08 C 146.89 107.81 139.51 113.54 138.00 119.00
C 136.22 114.22 127.59 107.91 128.36 102.30 C 129.12 96.70 135.40 89.62 138.00 85.00 Z"/>
</g>
<g fill="None" fill-opacity="0.0" stroke="#E73231" stroke-opacity="0.94" stroke-width="0.3"><path d="
M 138.00 85.00 
C 135.40 89.62 129.12 96.70 128.36 102.30 C 127.59 107.91 136.22 114.22 138.00 119.00
C 139.51 113.54 146.89 107.81 146.92 102.08 C 146.96 96.34 139.69 90.31 138.00 85.00
M 142.00 95.00 
C 138.70 94.60 136.58 91.22 135.00 96.00
C 132.53 92.94 137.18 90.24 137.00 87.00
C 139.86 88.67 140.25 92.39 142.00 95.00
M 138.00 94.00 
C 139.29 102.37 135.03 100.06 138.00 94.00
M 140.00 96.00 
C 140.00 100.00 140.00 104.00 140.00 108.00
C 138.43 105.06 138.29 98.87 140.00 96.00
M 142.00 96.00 
C 143.21 102.27 139.11 99.91 142.00 96.00
M 134.00 108.00 
C 133.01 104.63 132.10 100.31 134.00 97.00
C 135.86 99.37 138.03 106.97 134.00 108.00
M 146.00 103.00 
C 142.47 106.28 140.67 111.51 139.00 116.00
C 135.33 115.88 135.31 111.06 133.00 109.00
C 139.01 112.82 135.51 106.54 138.00 103.00
C 138.03 105.75 137.46 109.36 140.00 111.00
C 140.44 106.40 142.53 102.52 143.00 98.00
C 144.49 99.16 145.02 101.34 146.00 103.00
M 132.00 99.00 
C 134.02 108.13 127.08 104.46 132.00 99.00 Z"/>
</g>
<g fill="None" fill-opacity="0.0" stroke="#000000" stroke-opacity="0.06" stroke-width="0.3"><path d="
M 142.00 95.00 
C 140.25 92.39 139.86 88.67 137.00 87.00
C 137.18 90.24 132.53 92.94 135.00 96.00
C 136.58 91.22 138.70 94.60 142.00 95.00 Z"/>
</g>
<g fill="None" fill-opacity="0.0" stroke="#000000" stroke-opacity="0.03" stroke-width="0.3"><path d="
M 138.00 94.00 
C 135.03 100.06 139.29 102.37 138.00 94.00 Z"/>
</g>
<g fill="None" fill-opacity="0.0" stroke="#000000" stroke-opacity="0.09" stroke-width="0.3"><path d="
M 140.00 96.00 
C 138.29 98.87 138.43 105.06 140.00 108.00
C 140.00 104.00 140.00 100.00 140.00 96.00 Z"/>
</g>
<g fill="None" fill-opacity="0.0" stroke="#000000" stroke-opacity="0.14" stroke-width="0.3"><path d="
M 142.00 96.00 
C 139.11 99.91 143.21 102.27 142.00 96.00 Z"/>
</g>
<g fill="None" fill-opacity="0.0" stroke="#000000" stroke-opacity="0.04" stroke-width="0.3"><path d="
M 134.00 108.00 
C 138.03 106.97 135.86 99.37 134.00 97.00
C 132.10 100.31 133.01 104.63 134.00 108.00 Z"/>
</g>
<g fill="None" fill-opacity="0.0" stroke="#1F0303" stroke-opacity="0.29" stroke-width="0.3"><path d="
M 78.00 99.00 
C 75.89 100.01 73.25 97.05 72.00 99.00
C 73.92 100.52 76.78 101.80 78.00 99.00 Z"/>
</g>
<g fill="None" fill-opacity="0.0" stroke="#000000" stroke-opacity="0.00" stroke-width="0.3"><path d="
M 90.00 98.00 
C 87.34 97.95 83.92 97.50 84.00 100.00
C 85.32 101.95 91.42 101.66 90.00 98.00 Z"/>
</g>
<g fill="None" fill-opacity="0.0" stroke="#000000" stroke-opacity="0.05" stroke-width="0.3"><path d="
M 146.00 103.00 
C 145.02 101.34 144.49 99.16 143.00 98.00
C 142.53 102.52 140.44 106.40 140.00 111.00
C 137.46 109.36 138.03 105.75 138.00 103.00
C 135.51 106.54 139.01 112.82 133.00 109.00
C 135.31 111.06 135.33 115.88 139.00 116.00
C 140.67 111.51 142.47 106.28 146.00 103.00 Z"/>
</g>
<g fill="None" fill-opacity="0.0" stroke="#000000" stroke-opacity="0.00" stroke-width="0.3"><path d="
M 101.00 103.00 
C 101.74 97.42 97.54 99.64 101.00 103.00 Z"/>
</g>
<g fill="None" fill-opacity="0.0" stroke="#000000" stroke-opacity="0.04" stroke-width="0.3"><path d="
M 132.00 99.00 
C 127.08 104.46 134.02 108.13 132.00 99.00 Z"/>
</g>
<g fill="None" fill-opacity="0.0" stroke="#000000" stroke-opacity="0.00" stroke-width="0.3"><path d="
M 114.00 123.00 
C 121.09 125.77 117.76 110.78 112.00 111.00
C 111.86 115.45 117.07 118.48 114.00 123.00 Z"/>
</g>
<g fill="None" fill-opacity="0.0" stroke="#000000" stroke-opacity="0.03" stroke-width="0.3"><path d="
M 110.00 115.00 
C 107.46 106.81 99.00 119.58 102.00 123.00
C 103.73 119.45 106.09 115.89 110.00 115.00 Z"/>
</g>
<g fill="None" fill-opacity="0.0" stroke="#000000" stroke-opacity="0.00" stroke-width="0.3"><path d="
M 120.00 124.00 
C 127.52 124.35 122.07 113.37 118.00 113.00
C 120.35 116.19 120.13 120.11 120.00 124.00 Z"/>
</g>
<g fill="None" fill-opacity="0.0" stroke="#000000" stroke-opacity="0.04" stroke-width="0.3"><path d="
M 86.00 120.00 
C 92.14 118.88 84.47 112.83 86.00 120.00 Z"/>
</g>
<g fill="None" fill-opacity="0.0" stroke="#000000" stroke-opacity="0.00" stroke-width="0.3"><path d="
M 113.00 119.00 
C 108.88 114.14 101.84 122.94 103.00 128.00
C 105.91 128.20 108.34 124.24 106.00 122.00
C 108.45 121.51 111.10 120.22 113.00 119.00 Z"/>
</g>
<g fill="None" fill-opacity="0.0" stroke="#000000" stroke-opacity="0.05" stroke-width="0.3"><path d="
M 100.00 122.00 
C 99.38 119.69 94.67 118.00 96.00 122.00
C 91.82 122.58 86.42 120.79 83.00 123.00
C 88.60 122.45 94.82 124.17 100.00 122.00 Z"/>
</g>
<g fill="None" fill-opacity="0.0" stroke="#000000" stroke-opacity="0.00" stroke-width="0.3"><path d="
M 123.00 127.00 
C 118.80 123.93 112.54 127.21 110.00 122.00
C 106.99 128.09 118.68 131.31 123.00 127.00 Z"/>
</g>
<g fill="None" fill-opacity="0.0" stroke="#000000" stroke-opacity="0.00" stroke-width="0.3"><path d="
M 73.00 141.00 
C 74.17 136.57 77.10 123.20 68.00 126.00
C 69.93 130.93 71.58 135.94 73.00 141.00 Z"/>
</g>
<g fill="None" fill-opacity="0.0" stroke="#000000" stroke-opacity="0.00" stroke-width="0.3"><path d="
M 86.00 126.00 
C 77.10 126.04 82.11 138.63 81.00 145.00 C 79.89 151.37 81.10 159.70 86.00 164.00
C 86.00 151.33 86.00 138.67 86.00 126.00 Z"/>
</g>
<g fill="None" fill-opacity="0.0" stroke="#000000" stroke-opacity="0.00" stroke-width="0.3"><path d="
M 98.00 126.00 
C 88.87 127.96 93.76 143.50 93.00 152.00 C 92.24 160.50 91.45 172.27 97.00 179.00
C 99.39 162.46 97.25 142.67 98.00 126.00 Z"/>
</g>
<g fill="None" fill-opacity="0.0" stroke="#000000" stroke-opacity="0.00" stroke-width="0.3"><path d="
M 127.00 179.00 
C 137.29 168.66 129.72 149.60 132.00 136.00 C 134.28 122.40 126.38 126.25 127.60 134.26 C 128.82 142.26 126.03 149.07 127.00 157.00 C 127.97 164.93 126.58 171.90 127.00 179.00 Z"/>
</g>
<g fill="None" fill-opacity="0.0" stroke="#000000" stroke-opacity="0.00" stroke-width="0.3"><path d="
M 144.00 126.00 
C 135.56 125.82 139.78 136.86 139.00 143.00 C 138.22 149.14 139.58 157.64 139.00 164.00
C 148.24 154.26 142.34 138.54 144.00 126.00 Z"/>
</g>
<g fill="None" fill-opacity="0.0" stroke="#000000" stroke-opacity="0.00" stroke-width="0.3"><path d="
M 156.00 126.00 
C 147.90 125.05 151.46 136.45 151.00 141.00
C 153.86 136.87 155.49 131.20 156.00 126.00 Z"/>
</g>
<g fill="None" fill-opacity="0.0" stroke="#000000" stroke-opacity="0.00" stroke-width="0.3"><path d="
M 118.00 132.00 
C 116.08 132.32 107.79 125.26 106.36 129.30 C 104.93 133.35 115.88 134.04 118.00 132.00 Z"/>
</g>
<g fill="None" fill-opacity="0.0" stroke="#000000" stroke-opacity="0.00" stroke-width="0.3"><path d="
M 109.00 189.00 
C 108.29 179.34 109.95 167.44 109.00 158.00 C 108.05 148.56 112.95 136.35 104.00 132.00
C 104.72 141.60 103.03 154.75 104.00 164.00 C 104.97 173.24 100.41 182.95 109.00 189.00 Z"/>
</g>
<g fill="None" fill-opacity="0.0" stroke="#000000" stroke-opacity="0.00" stroke-width="0.3"><path d="
M 121.00 132.00 
C 112.15 135.76 116.91 148.58 116.00 158.00 C 115.09 167.42 116.68 179.35 116.00 189.00
C 118.16 187.36 118.45 186.21 121.00 186.00
C 121.00 168.00 121.00 150.00 121.00 132.00 Z"/>
</g>
<g fill="#000000" fill-opacity="0.00" stroke="None">
<path d="
M 0.00 225.00 
L 225.00 225.00
L 225.00 0.00
L 0.00 0.00
L 0.00 225.00
M 115.00 45.00 
C 118.13 46.62 121.47 47.79 125.00 46.00
C 120.00 44.29 123.01 33.77 128.03 34.03 C 133.04 34.29 135.46 43.71 132.00 47.00
C 134.81 48.91 138.66 48.21 141.00 46.00
C 139.58 37.31 145.02 40.51 144.79 47.23 C 144.56 53.95 159.25 48.03 153.00 42.00
C 155.72 41.37 162.69 38.83 162.00 44.00
C 160.49 45.50 157.67 42.80 157.00 46.00
C 161.28 50.06 151.17 55.44 158.00 58.00
C 154.32 58.27 152.60 62.72 153.00 66.00
C 139.43 71.15 121.64 70.10 107.00 70.00 C 92.36 69.90 75.58 72.15 69.00 59.00
C 72.95 54.47 64.76 50.60 68.00 45.00
C 66.09 43.41 61.97 44.95 63.00 41.00
C 66.60 40.74 70.06 40.92 73.00 43.00
C 67.27 52.62 86.57 50.79 80.00 43.00
C 81.13 39.79 83.98 39.75 86.00 42.00
C 82.02 46.96 89.37 50.03 93.00 47.00
C 90.73 43.69 91.15 35.41 96.08 34.08 C 101.02 32.75 105.47 43.18 101.00 46.00
C 103.78 47.83 108.73 47.60 110.00 44.00
C 101.27 42.32 105.08 27.19 113.01 28.01 C 120.94 28.83 122.91 43.10 115.00 45.00
M 113.00 197.00 
C 72.10 168.81 55.88 119.53 60.00 71.00
C 70.84 70.62 79.99 71.51 91.00 71.00 C 102.01 70.49 111.51 71.95 123.00 71.00 C 134.49 70.05 142.48 73.03 155.00 71.00 C 167.52 68.97 165.48 83.18 165.00 93.00 C 164.52 102.82 164.33 113.29 162.01 122.01 C 159.68 130.73 157.78 138.47 154.07 146.07 C 150.37 153.68 148.41 157.10 144.08 164.08 C 139.75 171.06 134.93 175.62 129.75 181.75 C 124.57 187.88 118.88 191.66 113.00 197.00 Z"/>
</g>
<g fill="#FA3232" fill-opacity="0.99" stroke="None">
<path d="
M 115.00 45.00 
C 122.91 43.10 120.94 28.83 113.01 28.01 C 105.08 27.19 101.27 42.32 110.00 44.00
C 108.73 47.60 103.78 47.83 101.00 46.00
C 105.47 43.18 101.02 32.75 96.08 34.08 C 91.15 35.41 90.73 43.69 93.00 47.00
C 89.37 50.03 82.02 46.96 86.00 42.00
C 83.98 39.75 81.13 39.79 80.00 43.00
C 86.57 50.79 67.27 52.62 73.00 43.00
C 70.06 40.92 66.60 40.74 63.00 41.00
C 61.97 44.95 66.09 43.41 68.00 45.00
C 64.76 50.60 72.95 54.47 69.00 59.00
C 75.58 72.15 92.36 69.90 107.00 70.00 C 121.64 70.10 139.43 71.15 153.00 66.00
C 152.60 62.72 154.32 58.27 158.00 58.00
C 151.17 55.44 161.28 50.06 157.00 46.00
C 157.67 42.80 160.49 45.50 162.00 44.00
C 162.69 38.83 155.72 41.37 153.00 42.00
C 159.25 48.03 144.56 53.95 144.79 47.23 C 145.02 40.51 139.58 37.31 141.00 46.00
C 138.66 48.21 134.81 48.91 132.00 47.00
C 135.46 43.71 133.04 34.29 128.03 34.03 C 123.01 33.77 120.00 44.29 125.00 46.00
C 121.47 47.79 118.13 46.62 115.00 45.00
M 115.00 40.00 
C 110.75 40.99 110.17 38.15 110.00 35.00
C 113.89 33.90 115.97 36.15 115.00 40.00
M 99.00 40.00 
C 99.47 47.89 91.30 39.91 99.00 40.00
M 130.00 40.00 
C 130.48 47.30 122.04 40.19 130.00 40.00
M 100.00 55.00 
C 99.98 59.37 93.56 58.40 91.00 57.00
C 93.20 54.96 96.87 54.85 100.00 55.00
M 117.00 57.00 
C 113.82 57.91 110.98 58.14 108.00 57.00
C 109.17 54.12 116.71 53.65 117.00 57.00
M 134.00 56.00 
C 133.62 59.50 127.34 58.13 125.00 57.00
C 126.60 53.36 131.24 55.43 134.00 56.00
M 83.00 60.00 
C 80.99 58.80 78.17 60.17 76.00 61.00
C 72.48 56.98 84.36 54.82 83.00 60.00
M 151.00 58.00 
C 150.63 61.57 143.54 60.36 142.00 58.00
C 144.84 55.50 147.82 58.70 151.00 58.00
M 148.00 64.00 
C 127.12 69.60 98.81 70.25 78.00 64.00
C 99.30 61.01 125.46 60.78 148.00 64.00 Z"/>
</g>
<g fill="#000000" fill-opacity="0.00" stroke="None">
<path d="
M 115.00 40.00 
C 115.97 36.15 113.89 33.90 110.00 35.00
C 110.17 38.15 110.75 40.99 115.00 40.00 Z"/>
</g>
<g fill="#000000" fill-opacity="0.00" stroke="None">
<path d="
M 99.00 40.00 
C 91.30 39.91 99.47 47.89 99.00 40.00 Z"/>
</g>
<g fill="#000000" fill-opacity="0.00" stroke="None">
<path d="
M 130.00 40.00 
C 122.04 40.19 130.48 47.30 130.00 40.00 Z"/>
</g>
<g fill="#000000" fill-opacity="0.00" stroke="None">
<path d="
M 100.00 55.00 
C 96.87 54.85 93.20 54.96 91.00 57.00
C 93.56 58.40 99.98 59.37 100.00 55.00 Z"/>
</g>
<g fill="#000000" fill-opacity="0.00" stroke="None">
<path d="
M 117.00 57.00 
C 116.71 53.65 109.17 54.12 108.00 57.00
C 110.98 58.14 113.82 57.91 117.00 57.00 Z"/>
</g>
<g fill="#000000" fill-opacity="0.00" stroke="None">
<path d="
M 134.00 56.00 
C 131.24 55.43 126.60 53.36 125.00 57.00
C 127.34 58.13 133.62 59.50 134.00 56.00 Z"/>
</g>
<g fill="#000000" fill-opacity="0.02" stroke="None">
<path d="
M 83.00 60.00 
C 84.36 54.82 72.48 56.98 76.00 61.00
C 78.17 60.17 80.99 58.80 83.00 60.00 Z"/>
</g>
<g fill="#000000" fill-opacity="0.00" stroke="None">
<path d="
M 151.00 58.00 
C 147.82 58.70 144.84 55.50 142.00 58.00
C 143.54 60.36 150.63 61.57 151.00 58.00 Z"/>
</g>
<g fill="#000000" fill-opacity="0.00" stroke="None">
<path d="
M 148.00 64.00 
C 125.46 60.78 99.30 61.01 78.00 64.00
C 98.81 70.25 127.12 69.60 148.00 64.00 Z"/>
</g>
<g fill="#FA3232" fill-opacity="0.98" stroke="None">
<path d="
M 113.00 197.00 
C 118.88 191.66 124.57 187.88 129.75 181.75 C 134.93 175.62 139.75 171.06 144.08 164.08 C 148.41 157.10 150.37 153.68 154.07 146.07 C 157.78 138.47 159.68 130.73 162.01 122.01 C 164.33 113.29 164.52 102.82 165.00 93.00 C 165.48 83.18 167.52 68.97 155.00 71.00 C 142.48 73.03 134.49 70.05 123.00 71.00 C 111.51 71.95 102.01 70.49 91.00 71.00 C 79.99 71.51 70.84 70.62 60.00 71.00
C 55.88 119.53 72.10 168.81 113.00 197.00
M 111.00 85.00 
C 96.71 76.91 78.39 77.40 64.00 85.00
C 64.00 81.67 64.00 78.33 64.00 75.00
C 73.39 74.89 83.70 75.15 93.00 75.00 C 102.30 74.85 114.15 72.54 111.00 85.00
M 161.00 75.00 
C 161.00 78.33 161.00 81.67 161.00 85.00
C 146.65 77.11 128.40 77.17 114.00 85.00
C 114.78 82.24 115.53 78.99 114.00 76.00
C 129.17 73.68 145.42 75.65 161.00 75.00
M 111.00 91.00 
C 110.47 96.25 111.37 103.08 111.00 109.00
C 108.28 108.37 106.59 111.07 104.00 111.00
C 105.88 105.27 101.64 102.40 103.00 97.00
C 100.33 95.85 97.71 95.97 95.00 97.00
C 96.61 99.12 93.19 99.26 95.00 102.00
C 89.52 101.07 91.71 95.61 93.00 92.00
C 87.74 91.87 90.97 85.89 88.00 84.00
C 84.34 85.47 80.89 94.62 83.00 101.00
C 79.19 102.15 80.54 97.87 79.00 96.00
C 76.14 95.65 73.61 96.27 71.00 97.00
C 71.24 104.00 68.84 111.77 69.00 120.00
C 74.05 119.39 78.07 120.35 82.00 122.00
C 77.91 124.24 71.84 122.40 67.00 123.00
C 66.29 112.35 63.20 100.89 64.00 90.00
C 78.25 81.09 96.90 79.91 111.00 91.00
M 126.00 123.00 
C 126.16 116.51 122.40 111.69 116.78 109.22 C 111.15 106.76 117.98 95.69 114.00 91.00
C 125.55 83.35 132.90 81.54 147.67 84.33 C 162.45 87.11 161.86 98.01 160.00 113.00 C 158.14 127.99 138.72 122.23 126.00 123.00
M 78.00 99.00 
C 76.78 101.80 73.92 100.52 72.00 99.00
C 73.25 97.05 75.89 100.01 78.00 99.00
M 90.00 98.00 
C 91.42 101.66 85.32 101.95 84.00 100.00
C 83.92 97.50 87.34 97.95 90.00 98.00
M 101.00 103.00 
C 97.54 99.64 101.74 97.42 101.00 103.00
M 114.00 123.00 
C 117.07 118.48 111.86 115.45 112.00 111.00
C 117.76 110.78 121.09 125.77 114.00 123.00
M 110.00 115.00 
C 106.09 115.89 103.73 119.45 102.00 123.00
C 99.00 119.58 107.46 106.81 110.00 115.00
M 120.00 124.00 
C 120.13 120.11 120.35 116.19 118.00 113.00
C 122.07 113.37 127.52 124.35 120.00 124.00
M 86.00 120.00 
C 84.47 112.83 92.14 118.88 86.00 120.00
M 113.00 119.00 
C 111.10 120.22 108.45 121.51 106.00 122.00
C 108.34 124.24 105.91 128.20 103.00 128.00
C 101.84 122.94 108.88 114.14 113.00 119.00
M 100.00 122.00 
C 94.82 124.17 88.60 122.45 83.00 123.00
C 86.42 120.79 91.82 122.58 96.00 122.00
C 94.67 118.00 99.38 119.69 100.00 122.00
M 123.00 127.00 
C 118.68 131.31 106.99 128.09 110.00 122.00
C 112.54 127.21 118.80 123.93 123.00 127.00
M 73.00 141.00 
C 71.58 135.94 69.93 130.93 68.00 126.00
C 77.10 123.20 74.17 136.57 73.00 141.00
M 86.00 126.00 
C 86.00 138.67 86.00 151.33 86.00 164.00
C 81.10 159.70 79.89 151.37 81.00 145.00 C 82.11 138.63 77.10 126.04 86.00 126.00
M 98.00 126.00 
C 97.25 142.67 99.39 162.46 97.00 179.00
C 91.45 172.27 92.24 160.50 93.00 152.00 C 93.76 143.50 88.87 127.96 98.00 126.00
M 127.00 179.00 
C 126.58 171.90 127.97 164.93 127.00 157.00 C 126.03 149.07 128.82 142.26 127.60 134.26 C 126.38 126.25 134.28 122.40 132.00 136.00 C 129.72 149.60 137.29 168.66 127.00 179.00
M 144.00 126.00 
C 142.34 138.54 148.24 154.26 139.00 164.00
C 139.58 157.64 138.22 149.14 139.00 143.00 C 139.78 136.86 135.56 125.82 144.00 126.00
M 156.00 126.00 
C 155.49 131.20 153.86 136.87 151.00 141.00
C 151.46 136.45 147.90 125.05 156.00 126.00
M 118.00 132.00 
C 115.88 134.04 104.93 133.35 106.36 129.30 C 107.79 125.26 116.08 132.32 118.00 132.00
M 109.00 189.00 
C 100.41 182.95 104.97 173.24 104.00 164.00 C 103.03 154.75 104.72 141.60 104.00 132.00
C 112.95 136.35 108.05 148.56 109.00 158.00 C 109.95 167.44 108.29 179.34 109.00 189.00
M 121.00 132.00 
C 121.00 150.00 121.00 168.00 121.00 186.00
C 118.45 186.21 118.16 187.36 116.00 189.00
C 116.68 179.35 115.09 167.42 116.00 158.00 C 116.91 148.58 112.15 135.76 121.00 132.00 Z"/>
</g>
<g fill="#000000" fill-opacity="0.00" stroke="None">
<path d="
M 111.00 85.00 
C 114.15 72.54 102.30 74.85 93.00 75.00 C 83.70 75.15 73.39 74.89 64.00 75.00
C 64.00 78.33 64.00 81.67 64.00 85.00
C 78.39 77.40 96.71 76.91 111.00 85.00 Z"/>
</g>
<g fill="#000000" fill-opacity="0.00" stroke="None">
<path d="
M 161.00 75.00 
C 145.42 75.65 129.17 73.68 114.00 76.00
C 115.53 78.99 114.78 82.24 114.00 85.00
C 128.40 77.17 146.65 77.11 161.00 85.00
C 161.00 81.67 161.00 78.33 161.00 75.00 Z"/>
</g>
<g fill="#000000" fill-opacity="0.00" stroke="None">
<path d="
M 111.00 91.00 
C 96.90 79.91 78.25 81.09 64.00 90.00
C 63.20 100.89 66.29 112.35 67.00 123.00
C 71.84 122.40 77.91 124.24 82.00 122.00
C 78.07 120.35 74.05 119.39 69.00 120.00
C 68.84 111.77 71.24 104.00 71.00 97.00
C 73.61 96.27 76.14 95.65 79.00 96.00
C 80.54 97.87 79.19 102.15 83.00 101.00
C 80.89 94.62 84.34 85.47 88.00 84.00
C 90.97 85.89 87.74 91.87 93.00 92.00
C 91.71 95.61 89.52 101.07 95.00 102.00
C 93.19 99.26 96.61 99.12 95.00 97.00
C 97.71 95.97 100.33 95.85 103.00 97.00
C 101.64 102.40 105.88 105.27 104.00 111.00
C 106.59 111.07 108.28 108.37 111.00 109.00
C 111.37 103.08 110.47 96.25 111.00 91.00 Z"/>
</g>
<g fill="#000000" fill-opacity="0.00" stroke="None">
<path d="
M 126.00 123.00 
C 138.72 122.23 158.14 127.99 160.00 113.00 C 161.86 98.01 162.45 87.11 147.67 84.33 C 132.90 81.54 125.55 83.35 114.00 91.00
C 117.98 95.69 111.15 106.76 116.78 109.22 C 122.40 111.69 126.16 116.51 126.00 123.00
M 138.00 85.00 
C 139.69 90.31 146.96 96.34 146.92 102.08 C 146.89 107.81 139.51 113.54 138.00 119.00
C 136.22 114.22 127.59 107.91 128.36 102.30 C 129.12 96.70 135.40 89.62 138.00 85.00 Z"/>
</g>
<g fill="#E73231" fill-opacity="0.94" stroke="None">
<path d="
M 138.00 85.00 
C 135.40 89.62 129.12 96.70 128.36 102.30 C 127.59 107.91 136.22 114.22 138.00 119.00
C 139.51 113.54 146.89 107.81 146.92 102.08 C 146.96 96.34 139.69 90.31 138.00 85.00
M 142.00 95.00 
C 138.70 94.60 136.58 91.22 135.00 96.00
C 132.53 92.94 137.18 90.24 137.00 87.00
C 139.86 88.67 140.25 92.39 142.00 95.00
M 138.00 94.00 
C 139.29 102.37 135.03 100.06 138.00 94.00
M 140.00 96.00 
C 140.00 100.00 140.00 104.00 140.00 108.00
C 138.43 105.06 138.29 98.87 140.00 96.00
M 142.00 96.00 
C 143.21 102.27 139.11 99.91 142.00 96.00
M 134.00 108.00 
C 133.01 104.63 132.10 100.31 134.00 97.00
C 135.86 99.37 138.03 106.97 134.00 108.00
M 146.00 103.00 
C 142.47 106.28 140.67 111.51 139.00 116.00
C 135.33 115.88 135.31 111.06 133.00 109.00
C 139.01 112.82 135.51 106.54 138.00 103.00
C 138.03 105.75 137.46 109.36 140.00 111.00
C 140.44 106.40 142.53 102.52 143.00 98.00
C 144.49 99.16 145.02 101.34 146.00 103.00
M 132.00 99.00 
C 134.02 108.13 127.08 104.46 132.00 99.00 Z"/>
</g>
<g fill="#000000" fill-opacity="0.06" stroke="None">
<path d="
M 142.00 95.00 
C 140.25 92.39 139.86 88.67 137.00 87.00
C 137.18 90.24 132.53 92.94 135.00 96.00
C 136.58 91.22 138.70 94.60 142.00 95.00 Z"/>
</g>
<g fill="#000000" fill-opacity="0.03" stroke="None">
<path d="
M 138.00 94.00 
C 135.03 100.06 139.29 102.37 138.00 94.00 Z"/>
</g>
<g fill="#000000" fill-opacity="0.09" stroke="None">
<path d="
M 140.00 96.00 
C 138.29 98.87 138.43 105.06 140.00 108.00
C 140.00 104.00 140.00 100.00 140.00 96.00 Z"/>
</g>
<g fill="#000000" fill-opacity="0.14" stroke="None">
<path d="
M 142.00 96.00 
C 139.11 99.91 143.21 102.27 142.00 96.00 Z"/>
</g>
<g fill="#000000" fill-opacity="0.04" stroke="None">
<path d="
M 134.00 108.00 
C 138.03 106.97 135.86 99.37 134.00 97.00
C 132.10 100.31 133.01 104.63 134.00 108.00 Z"/>
</g>
<g fill="#1F0303" fill-opacity="0.29" stroke="None">
<path d="
M 78.00 99.00 
C 75.89 100.01 73.25 97.05 72.00 99.00
C 73.92 100.52 76.78 101.80 78.00 99.00 Z"/>
</g>
<g fill="#000000" fill-opacity="0.00" stroke="None">
<path d="
M 90.00 98.00 
C 87.34 97.95 83.92 97.50 84.00 100.00
C 85.32 101.95 91.42 101.66 90.00 98.00 Z"/>
</g>
<g fill="#000000" fill-opacity="0.05" stroke="None">
<path d="
M 146.00 103.00 
C 145.02 101.34 144.49 99.16 143.00 98.00
C 142.53 102.52 140.44 106.40 140.00 111.00
C 137.46 109.36 138.03 105.75 138.00 103.00
C 135.51 106.54 139.01 112.82 133.00 109.00
C 135.31 111.06 135.33 115.88 139.00 116.00
C 140.67 111.51 142.47 106.28 146.00 103.00 Z"/>
</g>
<g fill="#000000" fill-opacity="0.00" stroke="None">
<path d="
M 101.00 103.00 
C 101.74 97.42 97.54 99.64 101.00 103.00 Z"/>
</g>
<g fill="#000000" fill-opacity="0.04" stroke="None">
<path d="
M 132.00 99.00 
C 127.08 104.46 134.02 108.13 132.00 99.00 Z"/>
</g>
<g fill="#000000" fill-opacity="0.00" stroke="None">
<path d="
M 114.00 123.00 
C 121.09 125.77 117.76 110.78 112.00 111.00
C 111.86 115.45 117.07 118.48 114.00 123.00 Z"/>
</g>
<g fill="#000000" fill-opacity="0.03" stroke="None">
<path d="
M 110.00 115.00 
C 107.46 106.81 99.00 119.58 102.00 123.00
C 103.73 119.45 106.09 115.89 110.00 115.00 Z"/>
</g>
<g fill="#000000" fill-opacity="0.00" stroke="None">
<path d="
M 120.00 124.00 
C 127.52 124.35 122.07 113.37 118.00 113.00
C 120.35 116.19 120.13 120.11 120.00 124.00 Z"/>
</g>
<g fill="#000000" fill-opacity="0.04" stroke="None">
<path d="
M 86.00 120.00 
C 92.14 118.88 84.47 112.83 86.00 120.00 Z"/>
</g>
<g fill="#000000" fill-opacity="0.00" stroke="None">
<path d="
M 113.00 119.00 
C 108.88 114.14 101.84 122.94 103.00 128.00
C 105.91 128.20 108.34 124.24 106.00 122.00
C 108.45 121.51 111.10 120.22 113.00 119.00 Z"/>
</g>
<g fill="#000000" fill-opacity="0.05" stroke="None">
<path d="
M 100.00 122.00 
C 99.38 119.69 94.67 118.00 96.00 122.00
C 91.82 122.58 86.42 120.79 83.00 123.00
C 88.60 122.45 94.82 124.17 100.00 122.00 Z"/>
</g>
<g fill="#000000" fill-opacity="0.00" stroke="None">
<path d="
M 123.00 127.00 
C 118.80 123.93 112.54 127.21 110.00 122.00
C 106.99 128.09 118.68 131.31 123.00 127.00 Z"/>
</g>
<g fill="#000000" fill-opacity="0.00" stroke="None">
<path d="
M 73.00 141.00 
C 74.17 136.57 77.10 123.20 68.00 126.00
C 69.93 130.93 71.58 135.94 73.00 141.00 Z"/>
</g>
<g fill="#000000" fill-opacity="0.00" stroke="None">
<path d="
M 86.00 126.00 
C 77.10 126.04 82.11 138.63 81.00 145.00 C 79.89 151.37 81.10 159.70 86.00 164.00
C 86.00 151.33 86.00 138.67 86.00 126.00 Z"/>
</g>
<g fill="#000000" fill-opacity="0.00" stroke="None">
<path d="
M 98.00 126.00 
C 88.87 127.96 93.76 143.50 93.00 152.00 C 92.24 160.50 91.45 172.27 97.00 179.00
C 99.39 162.46 97.25 142.67 98.00 126.00 Z"/>
</g>
<g fill="#000000" fill-opacity="0.00" stroke="None">
<path d="
M 127.00 179.00 
C 137.29 168.66 129.72 149.60 132.00 136.00 C 134.28 122.40 126.38 126.25 127.60 134.26 C 128.82 142.26 126.03 149.07 127.00 157.00 C 127.97 164.93 126.58 171.90 127.00 179.00 Z"/>
</g>
<g fill="#000000" fill-opacity="0.00" stroke="None">
<path d="
M 144.00 126.00 
C 135.56 125.82 139.78 136.86 139.00 143.00 C 138.22 149.14 139.58 157.64 139.00 164.00
C 148.24 154.26 142.34 138.54 144.00 126.00 Z"/>
</g>
<g fill="#000000" fill-opacity="0.00" stroke="None">
<path d="
M 156.00 126.00 
C 147.90 125.05 151.46 136.45 151.00 141.00
C 153.86 136.87 155.49 131.20 156.00 126.00 Z"/>
</g>
<g fill="#000000" fill-opacity="0.00" stroke="None">
<path d="
M 118.00 132.00 
C 116.08 132.32 107.79 125.26 106.36 129.30 C 104.93 133.35 115.88 134.04 118.00 132.00 Z"/>
</g>
<g fill="#000000" fill-opacity="0.00" stroke="None">
<path d="
M 109.00 189.00 
C 108.29 179.34 109.95 167.44 109.00 158.00 C 108.05 148.56 112.95 136.35 104.00 132.00
C 104.72 141.60 103.03 154.75 104.00 164.00 C 104.97 173.24 100.41 182.95 109.00 189.00 Z"/>
</g>
<g fill="#000000" fill-opacity="0.00" stroke="None">
<path d="
M 121.00 132.00 
C 112.15 135.76 116.91 148.58 116.00 158.00 C 115.09 167.42 116.68 179.35 116.00 189.00
C 118.16 187.36 118.45 186.21 121.00 186.00
C 121.00 168.00 121.00 150.00 121.00 132.00 Z"/>
</g>
</svg>